<svg width="59" height="38" viewBox="0 0 59 38" fill="none" xmlns="http://www.w3.org/2000/svg">
<path d="M11.7204 0.398132C17.2432 0.398132 21.7204 4.87529 21.7204 10.3981V27.8981C21.7204 28.3584 22.0935 28.7315 22.5537 28.7315C23.0139 28.7315 23.387 28.3584 23.387 27.8981V10.3981C23.387 4.87528 27.8642 0.398132 33.387 0.398132H46.7204C53.1637 0.398132 58.387 5.62148 58.387 12.0648V16.2445C58.387 19.0514 57.3754 21.7649 55.5371 23.8861L44.1146 37.0648H30.8822L47.9801 17.3366L48.0729 17.2194C48.2767 16.9367 48.387 16.5955 48.387 16.2445V12.0648C48.387 11.1443 47.6409 10.3981 46.7204 10.3981H35.0537V9.5648C35.0537 9.10456 34.6806 8.73147 34.2204 8.73147C33.7601 8.73147 33.387 9.10456 33.387 9.5648V27.0648C33.387 32.5876 28.9099 37.0648 23.387 37.0648H21.7204C16.1975 37.0648 11.7204 32.5876 11.7204 27.0648V9.5648C11.7204 9.10456 11.3473 8.73147 10.887 8.73147C10.4268 8.73147 10.0537 9.10456 10.0537 9.5648V37.0648H0.0537109V10.3981C0.0537109 4.87528 4.53086 0.398132 10.0537 0.398132H11.7204Z" fill="#FC5800"></path>
</svg>